<?xml version="1.0" encoding="utf-8"?>
<!-- Generator: Adobe Illustrator 23.0.1, SVG Export Plug-In . SVG Version: 6.00 Build 0)  -->
<svg version="1.1" id="Capa_1" xmlns="http://www.w3.org/2000/svg" xmlns:xlink="http://www.w3.org/1999/xlink" x="0px" y="0px"
	 viewBox="0 0 490 490" style="enable-background:new 0 0 490 490;" xml:space="preserve">
<style type="text/css">
	.st0{fill:#FFFFFF;}
</style>
<g>
	<path class="st0" d="M245,474c126.3,0,229-102.7,229-229S371.3,16,245,16S16,118.7,16,245S118.7,474,245,474z M312.6,401.7
		c13.9-19.4,27.4-43.9,36.6-74h45.1C376,360.5,347.3,386.7,312.6,401.7z M408.7,196.6c4.6,15.3,7,31.6,7,48.4s-2.5,33.1-7,48.4
		h-51.4c2.5-15,4-31.1,4-48.4s-1.5-33.4-4-48.4L408.7,196.6L408.7,196.6z M394.3,162.3h-45.1c-9.3-30.1-22.7-54.6-36.6-74
		C347.3,103.3,376,129.5,394.3,162.3z M262.1,81.8c16.5,16.7,37.3,43.3,50.8,80.5h-50.8V81.8z M262.1,196.6h60.2
		c2.9,14.9,4.7,30.9,4.7,48.4s-1.7,33.6-4.6,48.4h-60.3V196.6z M262.1,327.7H313c-13.5,37.6-34.3,64.1-50.9,80.8V327.7z M95.7,327.7
		h45.1c9.3,30.1,22.7,54.6,36.6,74C142.7,386.7,114,360.5,95.7,327.7z M227.9,408.2c-16.5-16.7-37.3-43.3-50.8-80.5h50.8V408.2z
		 M227.9,293.4h-60.2c-2.9-14.9-4.7-30.9-4.7-48.4s1.7-33.6,4.6-48.4h60.3L227.9,293.4L227.9,293.4z M227.9,162.3H177
		c13.5-37.6,34.3-64.1,50.9-80.8V162.3z M177.4,88.3c-13.9,19.4-27.4,43.9-36.6,74H95.7C114,129.5,142.7,103.3,177.4,88.3z
		 M74.3,245c0-16.8,2.5-33.1,7-48.4h51.4c-2.5,15-4,31.1-4,48.4s1.5,33.4,4,48.4H81.3C76.8,278.1,74.3,261.8,74.3,245z"/>
</g>
</svg>
